<svg width="65" height="68" viewBox="0 0 65 68" fill="none" xmlns="http://www.w3.org/2000/svg">
<g filter="url(#filter0_d_54_361)">
<path d="M41.1237 34.6V35.0167L41.4196 35.3101L43.9305 37.8H21.9641L24.4749 35.3101L24.7708 35.0167V34.6V26.9C24.7708 23.1087 27.4713 19.8648 31.0502 19.0554L31.8296 18.8791V18.08V17.1C31.8296 16.4702 32.2916 16 32.9473 16C33.6029 16 34.0649 16.4702 34.0649 17.1V18.08V18.8791L34.8443 19.0554C38.4233 19.8648 41.1237 23.1087 41.1237 26.9V34.6ZM34.4598 41.2C34.1324 41.6796 33.5777 42 32.9473 42C32.3169 42 31.7621 41.6796 31.4347 41.2H34.4598Z" stroke="#54669C" stroke-width="2"/>
</g>
<g filter="url(#filter1_d_54_361)">
<circle cx="22.9473" cy="18" r="8" fill="#0097E8"/>
<path d="M22.3691 13.3223C23.1816 13.3223 23.8242 13.5098 24.2969 13.8848C24.7695 14.2559 25.0059 14.7539 25.0059 15.3789C25.0059 16.2578 24.4785 16.957 23.4238 17.4766C24.0957 17.8125 24.5723 18.166 24.8535 18.5371C25.1387 18.9082 25.2812 19.3223 25.2812 19.7793C25.2812 20.4863 25.0215 21.0527 24.502 21.4785C23.9824 21.9043 23.2793 22.1172 22.3926 22.1172C21.4629 22.1172 20.7422 21.918 20.2305 21.5195C19.7188 21.1211 19.4629 20.5566 19.4629 19.8262C19.4629 19.3496 19.5957 18.9219 19.8613 18.543C20.1309 18.1602 20.5703 17.8203 21.1797 17.5234C20.6562 17.2109 20.2832 16.8809 20.0605 16.5332C19.8379 16.1855 19.7266 15.7949 19.7266 15.3613C19.7266 14.7402 19.9707 14.2461 20.459 13.8789C20.9473 13.5078 21.584 13.3223 22.3691 13.3223ZM20.7812 19.7793C20.7812 20.1855 20.9238 20.502 21.209 20.7285C21.4941 20.9512 21.8809 21.0625 22.3691 21.0625C22.873 21.0625 23.2637 20.9473 23.541 20.7168C23.8223 20.4824 23.9629 20.166 23.9629 19.7676C23.9629 19.4512 23.834 19.1621 23.5762 18.9004C23.3184 18.6387 22.9277 18.3965 22.4043 18.1738L22.2344 18.0977C21.7188 18.3242 21.3477 18.5742 21.1211 18.8477C20.8945 19.1172 20.7812 19.4277 20.7812 19.7793ZM22.3574 14.3828C21.9668 14.3828 21.6523 14.4805 21.4141 14.6758C21.1758 14.8672 21.0566 15.1289 21.0566 15.4609C21.0566 15.6641 21.0996 15.8457 21.1855 16.0059C21.2715 16.166 21.3965 16.3125 21.5605 16.4453C21.7246 16.5742 22.002 16.7305 22.3926 16.9141C22.8613 16.707 23.1914 16.4902 23.3828 16.2637C23.5781 16.0332 23.6758 15.7656 23.6758 15.4609C23.6758 15.1289 23.5547 14.8672 23.3125 14.6758C23.0742 14.4805 22.7559 14.3828 22.3574 14.3828Z" fill="white"/>
</g>
<defs>
<filter id="filter0_d_54_361" x="0.947266" y="0" width="64" height="68" filterUnits="userSpaceOnUse" color-interpolation-filters="sRGB">
<feFlood flood-opacity="0" result="BackgroundImageFix"/>
<feColorMatrix in="SourceAlpha" type="matrix" values="0 0 0 0 0 0 0 0 0 0 0 0 0 0 0 0 0 0 127 0" result="hardAlpha"/>
<feOffset dy="5"/>
<feGaussianBlur stdDeviation="10"/>
<feColorMatrix type="matrix" values="0 0 0 0 0 0 0 0 0 0.592157 0 0 0 0 0.909804 0 0 0 0.4 0"/>
<feBlend mode="normal" in2="BackgroundImageFix" result="effect1_dropShadow_54_361"/>
<feBlend mode="normal" in="SourceGraphic" in2="effect1_dropShadow_54_361" result="shape"/>
</filter>
<filter id="filter1_d_54_361" x="10.9473" y="8" width="24" height="24" filterUnits="userSpaceOnUse" color-interpolation-filters="sRGB">
<feFlood flood-opacity="0" result="BackgroundImageFix"/>
<feColorMatrix in="SourceAlpha" type="matrix" values="0 0 0 0 0 0 0 0 0 0 0 0 0 0 0 0 0 0 127 0" result="hardAlpha"/>
<feOffset dy="2"/>
<feGaussianBlur stdDeviation="2"/>
<feColorMatrix type="matrix" values="0 0 0 0 0.333333 0 0 0 0 0.137255 0 0 0 0 0.866667 0 0 0 0.4 0"/>
<feBlend mode="normal" in2="BackgroundImageFix" result="effect1_dropShadow_54_361"/>
<feBlend mode="normal" in="SourceGraphic" in2="effect1_dropShadow_54_361" result="shape"/>
</filter>
</defs>
</svg>
